<?xml version="1.0" standalone="no"?>
<!DOCTYPE svg PUBLIC "-//W3C//DTD SVG 20010904//EN"
 "http://www.w3.org/TR/2001/REC-SVG-20010904/DTD/svg10.dtd">
<svg version="1.0" xmlns="http://www.w3.org/2000/svg"
 width="300.000000pt" height="240.000000pt" viewBox="0 0 300.000000 240.000000"
 preserveAspectRatio="xMidYMid meet">
<metadata>
Created by potrace 1.10, written by Peter Selinger 2001-2011
</metadata>
<g transform="translate(0.000000,240.000000) scale(0.100000,-0.100000)"
fill="#000000" stroke="none">
<path d="M1671 2078 c-106 -52 -156 -220 -180 -598 -6 -84 -11 -153 -13 -154
-71 -31 -165 -85 -196 -112 l-42 -36 -31 66 c-53 114 -49 207 13 250 49 34
116 3 140 -64 14 -41 32 -39 24 2 -12 60 -86 118 -150 118 -60 0 -85 -21 -186
-150 -138 -177 -276 -307 -382 -359 -148 -73 -253 -67 -340 20 -55 55 -72 106
-65 196 7 90 58 168 143 219 14 9 16 15 8 23 -8 8 -22 3 -52 -19 -150 -109
-175 -318 -53 -440 106 -106 261 -103 427 6 76 50 230 199 297 286 l52 68 15
-74 c9 -41 30 -102 47 -137 l31 -63 -23 -30 c-60 -81 -74 -147 -46 -210 22
-51 61 -76 118 -76 56 0 100 31 113 79 14 53 2 103 -48 194 l-41 74 50 37 c27
20 78 52 113 72 l64 35 4 -174 c3 -189 9 -211 57 -205 24 3 28 13 73 177 47
168 99 301 119 301 5 0 12 -1 17 -2 4 -2 7 -109 7 -238 0 -246 6 -283 48 -319
34 -28 63 -4 190 157 69 86 149 180 179 209 179 172 370 220 484 121 55 -48
78 -101 78 -183 1 -89 -34 -168 -100 -222 -46 -39 -54 -53 -29 -53 26 0 103
80 130 135 78 158 9 343 -144 389 -66 19 -91 20 -157 2 -152 -40 -287 -155
-483 -410 -101 -129 -106 -134 -122 -105 -8 16 -10 53 -5 123 18 289 18 349
-1 386 -24 47 -64 61 -101 34 -40 -29 -88 -134 -122 -264 l-29 -115 -1 196 c0
108 3 230 6 272 l7 75 79 99 c134 168 177 287 133 372 -24 47 -57 52 -124 19z
m99 -23 c23 -28 16 -118 -14 -179 -23 -47 -159 -236 -170 -236 -6 0 43 236 59
285 21 62 50 110 78 130 27 19 31 19 47 0z m-536 -1019 c53 -105 43 -196 -22
-196 -57 0 -100 60 -88 122 7 40 64 141 74 134 5 -3 21 -30 36 -60z"/>
<path d="M1407 1960 c-55 -10 -73 -20 -35 -20 56 0 148 13 148 21 0 11 -46 10
-113 -1z"/>
<path d="M1450 1929 c-19 -5 -45 -6 -58 -4 -27 6 -231 -62 -303 -102 -72 -38
-197 -174 -238 -257 -18 -36 -31 -72 -28 -79 2 -6 20 20 40 59 34 68 85 139
94 131 2 -2 -12 -28 -32 -57 -19 -28 -35 -56 -35 -61 0 -6 20 4 45 21 25 17
45 35 45 40 0 5 26 26 57 47 31 21 64 52 73 68 17 32 131 96 173 97 12 0 63 7
114 16 80 14 93 19 97 38 3 12 9 29 12 38 7 18 -2 19 -56 5z"/>
<path d="M1242 1913 c-24 -8 -41 -17 -38 -20 6 -6 77 16 91 28 13 13 -2 10
-53 -8z"/>
<path d="M1824 1843 c-10 -27 -7 -30 56 -68 111 -68 126 -81 159 -152 18 -37
45 -80 60 -94 29 -26 68 -116 79 -182 l7 -39 24 26 c22 23 23 30 16 91 -9 88
-66 202 -141 280 -38 41 -48 48 -30 23 38 -53 18 -47 -24 7 -19 25 -38 45 -41
45 -3 0 -37 20 -75 45 -38 24 -72 45 -75 45 -3 0 -10 -12 -15 -27z"/>
<path d="M889 1507 c-20 -18 -43 -46 -52 -63 -19 -37 -37 -138 -37 -209 l0
-49 41 39 c39 38 41 42 35 87 -3 28 -1 50 5 54 6 3 8 12 5 20 -6 16 20 91 41
115 14 17 18 39 6 39 -5 -1 -24 -15 -44 -33z"/>
<path d="M771 1226 c-1 -46 2 -67 9 -60 6 6 7 31 1 69 l-9 60 -1 -69z"/>
<path d="M2176 1149 c-3 -8 -12 -41 -21 -74 -9 -32 -28 -81 -41 -108 -14 -27
-23 -54 -21 -60 2 -6 14 10 26 36 13 26 25 47 27 47 10 0 -29 -77 -52 -101
-13 -14 -24 -30 -24 -37 0 -34 -215 -223 -238 -208 -4 2 -32 -6 -62 -20 -30
-13 -49 -23 -42 -24 7 0 27 7 43 16 37 19 50 12 17 -10 -34 -22 -103 -35 -185
-36 -47 0 -73 -4 -75 -12 -4 -10 -27 -10 -107 0 -101 13 -159 28 -149 38 3 2
17 0 32 -5 57 -22 21 6 -52 41 -107 50 -194 117 -248 190 -52 70 -111 185
-120 235 -7 36 -15 41 -34 18 -7 -9 -9 -27 -5 -47 11 -57 26 -98 34 -94 10 7
63 -103 55 -115 -3 -5 -1 -8 4 -7 10 3 62 -65 62 -80 0 -5 19 -26 42 -47 23
-22 36 -32 29 -22 -21 27 -3 20 43 -18 53 -43 96 -61 216 -91 135 -34 241 -32
394 6 129 32 161 49 254 135 116 107 185 236 203 378 9 72 6 111 -5 76z"/>
<path d="M810 968 c11 -33 24 -66 31 -72 9 -8 11 -7 7 4 -3 8 -14 41 -24 73
-10 31 -21 57 -25 57 -4 0 1 -28 11 -62z"/>
<path d="M870 865 c19 -51 53 -110 57 -98 4 10 -54 123 -63 123 -2 0 1 -11 6
-25z"/>
</g>
</svg>
